# xmcd
#
# Track frame offsets: 
#        150
#        24384
#        49004
#        73043
#        102755
#        124007
#
# Disc length: 2147 seconds
#
# Revision: 1
# Processed by: cddbd v1.5.2PL0 Copyright (c) Steve Scherf et al.
# Submitted via: ExactAudioCopy v1.0b3
#
DISCID=47086106
DTITLE=Sigur Rós - Heim
DYEAR=2007
DGENRE=Alt. Rock
TTITLE0=Samskeyti
TTITLE1=Starálfur
TTITLE2=Vaka
TTITLE3=Ágætis Byrjun
TTITLE4=Heysátan
TTITLE5=Von
EXTD=
EXTT0=
EXTT1=
EXTT2=
EXTT3=
EXTT4=
EXTT5=
PLAYORDER=
